<svg width="512" height="640" xmlns="http://www.w3.org/2000/svg">

 <g>
  <title>background</title>
  <rect fill="none" id="canvas_background" height="402" width="582" y="-1" x="-1"/>
 </g>
 <g>
  <title>Layer 1</title>
  <g id="svg_1">
   <path id="svg_2" d="m510.925,282.633c0,-36.841 -19.285,-70.445 -50.173,-89.171c2.102,-8.311 3.162,-16.856 3.162,-25.542c0,-55.124 -42.983,-100.396 -97.195,-104.053c-7.238,-16.271 -18.687,-30.701 -33.012,-41.406c-18.125,-13.544 -39.694,-20.704 -62.377,-20.704c-52.442,0 -95.968,38.91 -103.229,89.375c-18.453,2.685 -36.022,10.296 -50.595,22.087c-15.262,12.35 -26.762,28.853 -33.102,47.265c-21.448,4.381 -41.031,15.435 -56.001,31.794c-17.622,19.26 -27.328,44.252 -27.328,70.374c0,42.118 25.097,78.482 61.121,94.929c20.349,40.725 62.457,68.759 110.994,68.759c4.232,0 8.413,-0.225 12.537,-0.642l9.762,13.002l0,55.542c0,8.836 7.163,16 16,16l97.131,0c8.837,0 16,-7.164 16,-16l0,-59.261c3.11,0.235 6.25,0.359 9.419,0.359c41.715,0 78.667,-20.717 101.152,-52.391c43.668,-12.448 75.734,-52.708 75.734,-100.316zm-403.191,84.283c10.376,-0.229 20.477,-1.959 30.052,-5.072l23.855,31.774c-20.973,-2.639 -39.766,-12.37 -53.907,-26.702zm188.003,47.975c-2.024,2.749 -3.117,6.074 -3.117,9.489l0,53.863l-65.131,0l0,-44.88c0,-3.465 -1.125,-6.836 -3.205,-9.606l-57.588,-76.703c3.975,-2.905 7.762,-6.105 11.33,-9.59c4.545,2.611 9.314,4.793 14.236,6.545l27.862,37.11c4.134,5.506 11.327,7.751 17.858,5.571c6.531,-2.179 10.937,-8.292 10.937,-15.178l0,-26.88c7.899,-2.62 15.403,-6.371 22.271,-11.115l0,28.442c0,6.913 4.439,13.043 11.006,15.201c6.567,2.158 13.777,-0.146 17.877,-5.712l21.253,-28.855c4.406,6.253 9.472,11.973 15.082,17.079l-40.671,55.219zm67.376,-37.516c8.041,3.704 16.598,6.4 25.493,7.965c-12.648,9.358 -27.764,15.559 -44.184,17.412l18.691,-25.377zm43.52,-22.45c-32.604,0 -61.301,-21.963 -69.786,-53.411c-1.187,-4.398 -4.191,-8.083 -8.263,-10.128c-2.254,-1.133 -4.717,-1.704 -7.185,-1.704c-1.989,0 -3.982,0.371 -5.873,1.117c-8.473,3.343 -17.391,5.039 -26.508,5.039c-4.224,0 -8.479,-0.373 -12.65,-1.109c-5.32,-0.939 -10.763,0.873 -14.459,4.82c-10.588,11.306 -24.93,17.533 -40.385,17.533c-13.049,0 -25.723,-4.64 -35.688,-13.065c-3.346,-2.828 -7.706,-4.162 -12.057,-3.688c-4.354,0.473 -8.324,2.709 -10.984,6.189c-13.812,18.066 -34.744,28.427 -57.428,28.427c-39.862,0 -72.292,-32.43 -72.292,-72.292c0,-18.105 6.726,-35.426 18.937,-48.771c12.138,-13.265 28.633,-21.498 46.445,-23.184c6.885,-0.651 12.571,-5.651 14.099,-12.396c3.56,-15.721 12.467,-30 25.081,-40.208c12.973,-10.497 28.672,-16.046 45.401,-16.046c8.837,0 16,-7.164 16,-16c0,-39.862 32.43,-72.292 72.292,-72.292c22.039,0 42.114,9.785 55.521,25.878c0.308,0.557 0.64,1.106 1.021,1.635c8.354,11.604 12.77,25.325 12.77,39.681c0,18.164 -7.073,35.241 -19.917,48.085c-6.249,6.248 -6.249,16.379 0,22.627c3.124,3.125 7.219,4.687 11.313,4.687s8.189,-1.562 11.313,-4.687c18.888,-18.888 29.29,-44 29.29,-70.712c0,-1.385 -0.031,-2.765 -0.087,-4.142c33.709,6.117 59.359,35.665 59.359,71.11c0,9.472 -1.816,18.699 -5.398,27.425c-3.322,8.091 0.468,17.349 8.51,20.788c26.668,11.404 43.899,37.507 43.899,66.499c0.001,39.865 -32.429,72.295 -72.291,72.295z"/>
  </g>
 </g>
</svg>